# xmcd
#
# Track frame offsets: 
#        150
#        16810
#        30170
#        47855
#        63292
#        77392
#        96767
#        109405
#        123917
#        144005
#        161025
#        181785
#        196777
#        210097
#        224505
#        238805
#
# Disc length: 3383 seconds
#
# Revision: 1
# Processed by: cddbd v1.5.2PL0 Copyright (c) Steve Scherf et al.
# Submitted via: ExactAudioCopyFreeDBPlugin 1.0
#
DISCID=c50d3510
DTITLE=Professor Washboard, John Fohl, Flakey Jake - Rockin Swamp Blue
DTITLE=s
DYEAR=1998
DGENRE=Blues
TTITLE0=Not Fade Away
TTITLE1=Mind Your Own Business
TTITLE2=Got My Red Beans Cookin´
TTITLE3=El Rancho Grande
TTITLE4=Rockin Pneumonia and the Boogie Woogie Flu
TTITLE5=Battle of New Orleans - Iko Iko
TTITLE6=Talk To Your Daughter
TTITLE7=Dis Bye Bye ´Chere
TTITLE8=When You Go To New Orleans
TTITLE9=You Made Your Move Too Soon
TTITLE10=Hot Tamale Baby
TTITLE11=Tube Snake Boogie
TTITLE12=Got Love If You Want It
TTITLE13=No Money Down
TTITLE14=Hearts Of Stone
TTITLE15=Sittin´ On Top Of The World
EXTD=YEAR: 1998
EXTT0=
EXTT1=
EXTT2=
EXTT3=
EXTT4=
EXTT5=
EXTT6=
EXTT7=
EXTT8=
EXTT9=
EXTT10=
EXTT11=
EXTT12=
EXTT13=
EXTT14=
EXTT15=
PLAYORDER=
